<mxfile host="app.diagrams.net" agent="Mozilla/5.0 (Windows NT 10.0; Win64; x64) AppleWebKit/537.36 (KHTML, like Gecko) Chrome/127.0.0.0 Safari/537.36 Edg/127.0.0.0" version="24.7.6">
  <diagram name="Page-1" id="rmgHdwg5Ab3pF3dVVto7">
    <mxGraphModel dx="1957" dy="1077" grid="1" gridSize="10" guides="1" tooltips="1" connect="1" arrows="1" fold="1" page="1" pageScale="1" pageWidth="850" pageHeight="1100" math="0" shadow="0">
      <root>
        <mxCell id="0" />
        <mxCell id="1" parent="0" />
        <mxCell id="onoX4jcqbB0CSbZ5sv_V-1" value="TOUR_CODE" style="ellipse;whiteSpace=wrap;html=1;align=center;fontStyle=4;" vertex="1" parent="1">
          <mxGeometry x="640" y="130" width="100" height="40" as="geometry" />
        </mxCell>
        <mxCell id="onoX4jcqbB0CSbZ5sv_V-2" value="LOCATION_CODE" style="ellipse;whiteSpace=wrap;html=1;align=center;fontStyle=4;" vertex="1" parent="1">
          <mxGeometry x="-400" y="230" width="100" height="40" as="geometry" />
        </mxCell>
        <mxCell id="onoX4jcqbB0CSbZ5sv_V-3" value="PROVINCE_CODE" style="ellipse;whiteSpace=wrap;html=1;align=center;fontStyle=4;" vertex="1" parent="1">
          <mxGeometry x="330" y="790" width="100" height="40" as="geometry" />
        </mxCell>
        <mxCell id="onoX4jcqbB0CSbZ5sv_V-4" value="TOUR" style="whiteSpace=wrap;html=1;align=center;" vertex="1" parent="1">
          <mxGeometry x="370" y="250" width="100" height="40" as="geometry" />
        </mxCell>
        <mxCell id="onoX4jcqbB0CSbZ5sv_V-5" value="LOCATION" style="whiteSpace=wrap;html=1;align=center;" vertex="1" parent="1">
          <mxGeometry x="-240" y="290" width="100" height="40" as="geometry" />
        </mxCell>
        <mxCell id="onoX4jcqbB0CSbZ5sv_V-6" value="PROVINCE" style="whiteSpace=wrap;html=1;align=center;" vertex="1" parent="1">
          <mxGeometry x="180" y="680" width="100" height="40" as="geometry" />
        </mxCell>
        <mxCell id="onoX4jcqbB0CSbZ5sv_V-7" value="EMPLOYEE" style="whiteSpace=wrap;html=1;align=center;" vertex="1" parent="1">
          <mxGeometry x="670" y="660" width="100" height="40" as="geometry" />
        </mxCell>
        <mxCell id="onoX4jcqbB0CSbZ5sv_V-8" value="TOUR_NAME" style="ellipse;whiteSpace=wrap;html=1;align=center;" vertex="1" parent="1">
          <mxGeometry x="390" y="130" width="100" height="40" as="geometry" />
        </mxCell>
        <mxCell id="onoX4jcqbB0CSbZ5sv_V-10" value="TRANS_GO" style="ellipse;whiteSpace=wrap;html=1;align=center;" vertex="1" parent="1">
          <mxGeometry x="140" y="130" width="100" height="40" as="geometry" />
        </mxCell>
        <mxCell id="onoX4jcqbB0CSbZ5sv_V-11" value="TRANS_RETURN" style="ellipse;whiteSpace=wrap;html=1;align=center;" vertex="1" parent="1">
          <mxGeometry x="520" y="130" width="100" height="40" as="geometry" />
        </mxCell>
        <mxCell id="onoX4jcqbB0CSbZ5sv_V-12" value="PRICE" style="ellipse;whiteSpace=wrap;html=1;align=center;" vertex="1" parent="1">
          <mxGeometry x="270" y="130" width="100" height="40" as="geometry" />
        </mxCell>
        <mxCell id="onoX4jcqbB0CSbZ5sv_V-13" value="LOCATION_NAME" style="ellipse;whiteSpace=wrap;html=1;align=center;" vertex="1" parent="1">
          <mxGeometry x="-400" y="380" width="100" height="40" as="geometry" />
        </mxCell>
        <mxCell id="onoX4jcqbB0CSbZ5sv_V-14" value="" style="endArrow=none;html=1;rounded=0;exitX=0.5;exitY=1;exitDx=0;exitDy=0;entryX=0.5;entryY=0;entryDx=0;entryDy=0;" edge="1" parent="1" source="onoX4jcqbB0CSbZ5sv_V-10" target="onoX4jcqbB0CSbZ5sv_V-4">
          <mxGeometry relative="1" as="geometry">
            <mxPoint x="410" y="390" as="sourcePoint" />
            <mxPoint x="570" y="390" as="targetPoint" />
          </mxGeometry>
        </mxCell>
        <mxCell id="onoX4jcqbB0CSbZ5sv_V-15" value="" style="endArrow=none;html=1;rounded=0;exitX=0.5;exitY=1;exitDx=0;exitDy=0;entryX=0.5;entryY=0;entryDx=0;entryDy=0;" edge="1" parent="1" source="onoX4jcqbB0CSbZ5sv_V-12" target="onoX4jcqbB0CSbZ5sv_V-4">
          <mxGeometry relative="1" as="geometry">
            <mxPoint x="410" y="390" as="sourcePoint" />
            <mxPoint x="420" y="250" as="targetPoint" />
          </mxGeometry>
        </mxCell>
        <mxCell id="onoX4jcqbB0CSbZ5sv_V-16" value="" style="endArrow=none;html=1;rounded=0;exitX=0.5;exitY=1;exitDx=0;exitDy=0;entryX=0.5;entryY=0;entryDx=0;entryDy=0;" edge="1" parent="1" source="onoX4jcqbB0CSbZ5sv_V-8" target="onoX4jcqbB0CSbZ5sv_V-4">
          <mxGeometry relative="1" as="geometry">
            <mxPoint x="410" y="390" as="sourcePoint" />
            <mxPoint x="570" y="390" as="targetPoint" />
          </mxGeometry>
        </mxCell>
        <mxCell id="onoX4jcqbB0CSbZ5sv_V-17" value="" style="endArrow=none;html=1;rounded=0;exitX=0.5;exitY=1;exitDx=0;exitDy=0;entryX=0.5;entryY=0;entryDx=0;entryDy=0;" edge="1" parent="1" source="onoX4jcqbB0CSbZ5sv_V-11" target="onoX4jcqbB0CSbZ5sv_V-4">
          <mxGeometry relative="1" as="geometry">
            <mxPoint x="410" y="390" as="sourcePoint" />
            <mxPoint x="570" y="390" as="targetPoint" />
          </mxGeometry>
        </mxCell>
        <mxCell id="onoX4jcqbB0CSbZ5sv_V-18" value="" style="endArrow=none;html=1;rounded=0;entryX=0.5;entryY=1;entryDx=0;entryDy=0;exitX=0.5;exitY=0;exitDx=0;exitDy=0;" edge="1" parent="1" source="onoX4jcqbB0CSbZ5sv_V-4" target="onoX4jcqbB0CSbZ5sv_V-1">
          <mxGeometry relative="1" as="geometry">
            <mxPoint x="410" y="390" as="sourcePoint" />
            <mxPoint x="570" y="390" as="targetPoint" />
          </mxGeometry>
        </mxCell>
        <mxCell id="onoX4jcqbB0CSbZ5sv_V-19" value="DETAIL" style="shape=ext;margin=3;double=1;whiteSpace=wrap;html=1;align=center;" vertex="1" parent="1">
          <mxGeometry x="720" y="400" width="100" height="40" as="geometry" />
        </mxCell>
        <mxCell id="onoX4jcqbB0CSbZ5sv_V-20" value="CHARACTERISTICS" style="ellipse;whiteSpace=wrap;html=1;align=center;" vertex="1" parent="1">
          <mxGeometry x="-400" y="300" width="100" height="40" as="geometry" />
        </mxCell>
        <mxCell id="onoX4jcqbB0CSbZ5sv_V-21" value="" style="endArrow=none;html=1;rounded=0;exitX=1;exitY=0.5;exitDx=0;exitDy=0;entryX=0;entryY=0.5;entryDx=0;entryDy=0;" edge="1" parent="1" source="onoX4jcqbB0CSbZ5sv_V-2" target="onoX4jcqbB0CSbZ5sv_V-5">
          <mxGeometry relative="1" as="geometry">
            <mxPoint x="-20" y="170" as="sourcePoint" />
            <mxPoint x="140" y="170" as="targetPoint" />
          </mxGeometry>
        </mxCell>
        <mxCell id="onoX4jcqbB0CSbZ5sv_V-22" value="" style="endArrow=none;html=1;rounded=0;exitX=1;exitY=0.5;exitDx=0;exitDy=0;entryX=0;entryY=0.5;entryDx=0;entryDy=0;" edge="1" parent="1" source="onoX4jcqbB0CSbZ5sv_V-20" target="onoX4jcqbB0CSbZ5sv_V-5">
          <mxGeometry relative="1" as="geometry">
            <mxPoint x="-20" y="170" as="sourcePoint" />
            <mxPoint x="140" y="170" as="targetPoint" />
          </mxGeometry>
        </mxCell>
        <mxCell id="onoX4jcqbB0CSbZ5sv_V-23" value="" style="endArrow=none;html=1;rounded=0;entryX=1;entryY=0.5;entryDx=0;entryDy=0;exitX=0;exitY=0.5;exitDx=0;exitDy=0;" edge="1" parent="1" source="onoX4jcqbB0CSbZ5sv_V-5" target="onoX4jcqbB0CSbZ5sv_V-13">
          <mxGeometry relative="1" as="geometry">
            <mxPoint x="-20" y="170" as="sourcePoint" />
            <mxPoint x="140" y="170" as="targetPoint" />
          </mxGeometry>
        </mxCell>
        <mxCell id="onoX4jcqbB0CSbZ5sv_V-24" value="PROVINCE_NAME" style="ellipse;whiteSpace=wrap;html=1;align=center;" vertex="1" parent="1">
          <mxGeometry x="50" y="790" width="100" height="40" as="geometry" />
        </mxCell>
        <mxCell id="onoX4jcqbB0CSbZ5sv_V-25" value="REGION" style="ellipse;whiteSpace=wrap;html=1;align=center;" vertex="1" parent="1">
          <mxGeometry x="190" y="790" width="100" height="40" as="geometry" />
        </mxCell>
        <mxCell id="onoX4jcqbB0CSbZ5sv_V-27" value="" style="endArrow=none;html=1;rounded=0;exitX=0.5;exitY=0;exitDx=0;exitDy=0;entryX=0.5;entryY=1;entryDx=0;entryDy=0;" edge="1" parent="1" source="onoX4jcqbB0CSbZ5sv_V-24" target="onoX4jcqbB0CSbZ5sv_V-6">
          <mxGeometry relative="1" as="geometry">
            <mxPoint x="210" y="360" as="sourcePoint" />
            <mxPoint x="370" y="360" as="targetPoint" />
          </mxGeometry>
        </mxCell>
        <mxCell id="onoX4jcqbB0CSbZ5sv_V-28" value="" style="endArrow=none;html=1;rounded=0;exitX=0.5;exitY=1;exitDx=0;exitDy=0;entryX=0.5;entryY=0;entryDx=0;entryDy=0;" edge="1" parent="1" source="onoX4jcqbB0CSbZ5sv_V-6" target="onoX4jcqbB0CSbZ5sv_V-25">
          <mxGeometry relative="1" as="geometry">
            <mxPoint x="210" y="360" as="sourcePoint" />
            <mxPoint x="370" y="360" as="targetPoint" />
          </mxGeometry>
        </mxCell>
        <mxCell id="onoX4jcqbB0CSbZ5sv_V-29" value="" style="endArrow=none;html=1;rounded=0;exitX=0.5;exitY=1;exitDx=0;exitDy=0;entryX=0.5;entryY=0;entryDx=0;entryDy=0;" edge="1" parent="1" source="onoX4jcqbB0CSbZ5sv_V-6" target="onoX4jcqbB0CSbZ5sv_V-3">
          <mxGeometry relative="1" as="geometry">
            <mxPoint x="210" y="360" as="sourcePoint" />
            <mxPoint x="370" y="360" as="targetPoint" />
          </mxGeometry>
        </mxCell>
        <mxCell id="onoX4jcqbB0CSbZ5sv_V-31" value="DAYS" style="ellipse;whiteSpace=wrap;html=1;align=center;" vertex="1" parent="1">
          <mxGeometry x="850" y="330" width="100" height="40" as="geometry" />
        </mxCell>
        <mxCell id="onoX4jcqbB0CSbZ5sv_V-32" value="NIGHTS" style="ellipse;whiteSpace=wrap;html=1;align=center;" vertex="1" parent="1">
          <mxGeometry x="860" y="440" width="100" height="40" as="geometry" />
        </mxCell>
        <mxCell id="onoX4jcqbB0CSbZ5sv_V-33" value="" style="endArrow=none;html=1;rounded=0;exitX=1;exitY=0.5;exitDx=0;exitDy=0;entryX=0;entryY=0.5;entryDx=0;entryDy=0;" edge="1" parent="1" source="onoX4jcqbB0CSbZ5sv_V-19" target="onoX4jcqbB0CSbZ5sv_V-31">
          <mxGeometry relative="1" as="geometry">
            <mxPoint x="540" y="360" as="sourcePoint" />
            <mxPoint x="700" y="360" as="targetPoint" />
          </mxGeometry>
        </mxCell>
        <mxCell id="onoX4jcqbB0CSbZ5sv_V-34" value="" style="endArrow=none;html=1;rounded=0;entryX=0;entryY=0.5;entryDx=0;entryDy=0;exitX=1;exitY=0.5;exitDx=0;exitDy=0;" edge="1" parent="1" source="onoX4jcqbB0CSbZ5sv_V-19" target="onoX4jcqbB0CSbZ5sv_V-32">
          <mxGeometry relative="1" as="geometry">
            <mxPoint x="540" y="360" as="sourcePoint" />
            <mxPoint x="700" y="360" as="targetPoint" />
          </mxGeometry>
        </mxCell>
        <mxCell id="onoX4jcqbB0CSbZ5sv_V-35" value="EMPLOYEE_CODE" style="ellipse;whiteSpace=wrap;html=1;align=center;fontStyle=4;" vertex="1" parent="1">
          <mxGeometry x="850" y="710" width="100" height="40" as="geometry" />
        </mxCell>
        <mxCell id="onoX4jcqbB0CSbZ5sv_V-36" value="EMPLOYEE_NAME" style="ellipse;whiteSpace=wrap;html=1;align=center;" vertex="1" parent="1">
          <mxGeometry x="860" y="630" width="100" height="40" as="geometry" />
        </mxCell>
        <mxCell id="onoX4jcqbB0CSbZ5sv_V-37" value="ADDRESS" style="ellipse;whiteSpace=wrap;html=1;align=center;" vertex="1" parent="1">
          <mxGeometry x="820" y="790" width="100" height="40" as="geometry" />
        </mxCell>
        <mxCell id="onoX4jcqbB0CSbZ5sv_V-38" value="PHONE" style="ellipse;whiteSpace=wrap;html=1;align=center;" vertex="1" parent="1">
          <mxGeometry x="580" y="730" width="100" height="40" as="geometry" />
        </mxCell>
        <mxCell id="onoX4jcqbB0CSbZ5sv_V-39" value="TAX" style="ellipse;whiteSpace=wrap;html=1;align=center;" vertex="1" parent="1">
          <mxGeometry x="700" y="750" width="100" height="40" as="geometry" />
        </mxCell>
        <mxCell id="onoX4jcqbB0CSbZ5sv_V-41" value="" style="endArrow=none;html=1;rounded=0;exitX=0.5;exitY=0;exitDx=0;exitDy=0;entryX=0.5;entryY=1;entryDx=0;entryDy=0;" edge="1" parent="1" source="onoX4jcqbB0CSbZ5sv_V-38" target="onoX4jcqbB0CSbZ5sv_V-7">
          <mxGeometry relative="1" as="geometry">
            <mxPoint x="330" y="380" as="sourcePoint" />
            <mxPoint x="490" y="380" as="targetPoint" />
          </mxGeometry>
        </mxCell>
        <mxCell id="onoX4jcqbB0CSbZ5sv_V-42" value="" style="endArrow=none;html=1;rounded=0;entryX=0.5;entryY=0;entryDx=0;entryDy=0;exitX=0.5;exitY=1;exitDx=0;exitDy=0;" edge="1" parent="1" source="onoX4jcqbB0CSbZ5sv_V-7" target="onoX4jcqbB0CSbZ5sv_V-39">
          <mxGeometry relative="1" as="geometry">
            <mxPoint x="330" y="380" as="sourcePoint" />
            <mxPoint x="490" y="380" as="targetPoint" />
          </mxGeometry>
        </mxCell>
        <mxCell id="onoX4jcqbB0CSbZ5sv_V-43" value="" style="endArrow=none;html=1;rounded=0;entryX=0;entryY=0.5;entryDx=0;entryDy=0;exitX=1;exitY=0.5;exitDx=0;exitDy=0;" edge="1" parent="1" source="onoX4jcqbB0CSbZ5sv_V-7" target="onoX4jcqbB0CSbZ5sv_V-36">
          <mxGeometry relative="1" as="geometry">
            <mxPoint x="330" y="380" as="sourcePoint" />
            <mxPoint x="490" y="380" as="targetPoint" />
          </mxGeometry>
        </mxCell>
        <mxCell id="onoX4jcqbB0CSbZ5sv_V-44" value="" style="endArrow=none;html=1;rounded=0;entryX=0;entryY=0.5;entryDx=0;entryDy=0;exitX=1;exitY=0.75;exitDx=0;exitDy=0;" edge="1" parent="1" source="onoX4jcqbB0CSbZ5sv_V-7" target="onoX4jcqbB0CSbZ5sv_V-35">
          <mxGeometry relative="1" as="geometry">
            <mxPoint x="330" y="380" as="sourcePoint" />
            <mxPoint x="490" y="380" as="targetPoint" />
          </mxGeometry>
        </mxCell>
        <mxCell id="onoX4jcqbB0CSbZ5sv_V-45" value="" style="endArrow=none;html=1;rounded=0;exitX=0.75;exitY=1;exitDx=0;exitDy=0;entryX=0.5;entryY=0;entryDx=0;entryDy=0;" edge="1" parent="1" source="onoX4jcqbB0CSbZ5sv_V-7" target="onoX4jcqbB0CSbZ5sv_V-37">
          <mxGeometry relative="1" as="geometry">
            <mxPoint x="330" y="380" as="sourcePoint" />
            <mxPoint x="490" y="380" as="targetPoint" />
          </mxGeometry>
        </mxCell>
        <mxCell id="onoX4jcqbB0CSbZ5sv_V-46" value="" style="fontSize=12;html=1;endArrow=ERmandOne;startArrow=ERmandOne;rounded=0;exitX=0.5;exitY=0;exitDx=0;exitDy=0;entryX=0.5;entryY=1;entryDx=0;entryDy=0;" edge="1" parent="1" source="onoX4jcqbB0CSbZ5sv_V-7" target="onoX4jcqbB0CSbZ5sv_V-4">
          <mxGeometry width="100" height="100" relative="1" as="geometry">
            <mxPoint x="360" y="430" as="sourcePoint" />
            <mxPoint x="460" y="330" as="targetPoint" />
          </mxGeometry>
        </mxCell>
        <mxCell id="onoX4jcqbB0CSbZ5sv_V-47" value="MANAGE" style="shape=rhombus;perimeter=rhombusPerimeter;whiteSpace=wrap;html=1;align=center;" vertex="1" parent="1">
          <mxGeometry x="470" y="400" width="120" height="60" as="geometry" />
        </mxCell>
        <mxCell id="onoX4jcqbB0CSbZ5sv_V-51" value="" style="fontSize=12;html=1;endArrow=ERmandOne;startArrow=ERmandOne;rounded=0;entryX=1;entryY=1;entryDx=0;entryDy=0;exitX=0;exitY=0.25;exitDx=0;exitDy=0;" edge="1" parent="1" source="onoX4jcqbB0CSbZ5sv_V-19" target="onoX4jcqbB0CSbZ5sv_V-4">
          <mxGeometry width="100" height="100" relative="1" as="geometry">
            <mxPoint x="360" y="430" as="sourcePoint" />
            <mxPoint x="460" y="330" as="targetPoint" />
          </mxGeometry>
        </mxCell>
        <mxCell id="onoX4jcqbB0CSbZ5sv_V-50" value="HAS" style="shape=rhombus;perimeter=rhombusPerimeter;whiteSpace=wrap;html=1;align=center;" vertex="1" parent="1">
          <mxGeometry x="540" y="320" width="120" height="60" as="geometry" />
        </mxCell>
        <mxCell id="onoX4jcqbB0CSbZ5sv_V-52" value="" style="fontSize=12;html=1;endArrow=ERmandOne;startArrow=ERmandOne;rounded=0;entryX=0.25;entryY=1;entryDx=0;entryDy=0;exitX=0;exitY=0;exitDx=0;exitDy=0;" edge="1" parent="1" source="onoX4jcqbB0CSbZ5sv_V-54" target="onoX4jcqbB0CSbZ5sv_V-4">
          <mxGeometry width="100" height="100" relative="1" as="geometry">
            <mxPoint x="360" y="430" as="sourcePoint" />
            <mxPoint x="460" y="330" as="targetPoint" />
          </mxGeometry>
        </mxCell>
        <mxCell id="onoX4jcqbB0CSbZ5sv_V-55" value="" style="fontSize=12;html=1;endArrow=ERmandOne;startArrow=ERmandOne;rounded=0;entryX=0.25;entryY=1;entryDx=0;entryDy=0;exitX=0;exitY=0;exitDx=0;exitDy=0;" edge="1" parent="1" source="onoX4jcqbB0CSbZ5sv_V-6" target="onoX4jcqbB0CSbZ5sv_V-54">
          <mxGeometry width="100" height="100" relative="1" as="geometry">
            <mxPoint x="180" y="680" as="sourcePoint" />
            <mxPoint x="395" y="290" as="targetPoint" />
          </mxGeometry>
        </mxCell>
        <mxCell id="onoX4jcqbB0CSbZ5sv_V-54" value="BELONGS TO" style="shape=rhombus;perimeter=rhombusPerimeter;whiteSpace=wrap;html=1;align=center;" vertex="1" parent="1">
          <mxGeometry x="240" y="410" width="120" height="60" as="geometry" />
        </mxCell>
        <mxCell id="onoX4jcqbB0CSbZ5sv_V-59" value="" style="fontSize=12;html=1;endArrow=ERoneToMany;rounded=0;exitX=1;exitY=0.25;exitDx=0;exitDy=0;entryX=0.5;entryY=1;entryDx=0;entryDy=0;" edge="1" parent="1" source="onoX4jcqbB0CSbZ5sv_V-60" target="onoX4jcqbB0CSbZ5sv_V-4">
          <mxGeometry width="100" height="100" relative="1" as="geometry">
            <mxPoint x="360" y="430" as="sourcePoint" />
            <mxPoint x="460" y="330" as="targetPoint" />
            <Array as="points" />
          </mxGeometry>
        </mxCell>
        <mxCell id="onoX4jcqbB0CSbZ5sv_V-61" value="" style="fontSize=12;html=1;endArrow=ERoneToMany;rounded=0;exitX=1;exitY=0.25;exitDx=0;exitDy=0;entryX=0.5;entryY=1;entryDx=0;entryDy=0;" edge="1" parent="1" source="onoX4jcqbB0CSbZ5sv_V-6" target="onoX4jcqbB0CSbZ5sv_V-60">
          <mxGeometry width="100" height="100" relative="1" as="geometry">
            <mxPoint x="280" y="690" as="sourcePoint" />
            <mxPoint x="420" y="290" as="targetPoint" />
            <Array as="points">
              <mxPoint x="420" y="540" />
            </Array>
          </mxGeometry>
        </mxCell>
        <mxCell id="onoX4jcqbB0CSbZ5sv_V-60" value="HAS" style="shape=rhombus;perimeter=rhombusPerimeter;whiteSpace=wrap;html=1;align=center;" vertex="1" parent="1">
          <mxGeometry x="365" y="510" width="120" height="60" as="geometry" />
        </mxCell>
        <mxCell id="onoX4jcqbB0CSbZ5sv_V-62" value="" style="fontSize=12;html=1;endArrow=ERoneToMany;rounded=0;exitX=0;exitY=0.5;exitDx=0;exitDy=0;entryX=0.25;entryY=0;entryDx=0;entryDy=0;" edge="1" parent="1" source="onoX4jcqbB0CSbZ5sv_V-4" target="onoX4jcqbB0CSbZ5sv_V-5">
          <mxGeometry width="100" height="100" relative="1" as="geometry">
            <mxPoint x="360" y="430" as="sourcePoint" />
            <mxPoint x="460" y="330" as="targetPoint" />
          </mxGeometry>
        </mxCell>
        <mxCell id="onoX4jcqbB0CSbZ5sv_V-64" value="" style="edgeStyle=entityRelationEdgeStyle;fontSize=12;html=1;endArrow=ERmany;startArrow=ERmany;rounded=0;entryX=0;entryY=0.75;entryDx=0;entryDy=0;" edge="1" parent="1" source="onoX4jcqbB0CSbZ5sv_V-63" target="onoX4jcqbB0CSbZ5sv_V-4">
          <mxGeometry width="100" height="100" relative="1" as="geometry">
            <mxPoint x="-50" y="430" as="sourcePoint" />
            <mxPoint x="50" y="330" as="targetPoint" />
          </mxGeometry>
        </mxCell>
        <mxCell id="onoX4jcqbB0CSbZ5sv_V-65" value="" style="edgeStyle=entityRelationEdgeStyle;fontSize=12;html=1;endArrow=ERmany;startArrow=ERmany;rounded=0;entryX=0;entryY=0.75;entryDx=0;entryDy=0;" edge="1" parent="1" source="onoX4jcqbB0CSbZ5sv_V-5" target="onoX4jcqbB0CSbZ5sv_V-63">
          <mxGeometry width="100" height="100" relative="1" as="geometry">
            <mxPoint x="-140" y="310" as="sourcePoint" />
            <mxPoint x="370" y="280" as="targetPoint" />
          </mxGeometry>
        </mxCell>
        <mxCell id="onoX4jcqbB0CSbZ5sv_V-63" value="HAS" style="shape=rhombus;perimeter=rhombusPerimeter;whiteSpace=wrap;html=1;align=center;" vertex="1" parent="1">
          <mxGeometry y="260" width="120" height="60" as="geometry" />
        </mxCell>
      </root>
    </mxGraphModel>
  </diagram>
</mxfile>
